PathFileType	4	(X/Y/Z)	Patient4_TMGait_0pt7_01_right_45.trc.trc
DataRate	CameraRate	NumFrames	NumMarkers	Units	OrigDataRate	OrigDataStartFrame	OrigNumFrames
83.333333333333	83.333333333333	5	33	mm	83.333333333333	124	       141
Frame#	Time	Sacral			L.Shoulder			Chest			R.Shoulder			Neck			R.ASIS			L.ASIS			R.Thigh.Superior			R.Thigh.Lateral			R.Thigh.Inferior			R.Patella			L.Thigh.Superior			L.Thigh.Lateral			L.Thigh.Inferior			L.Patella			L.Shank.Superior			L.Shank.Lateral			L.Shank.Inferior			R.Shank.Superior			R.Shank.Lateral			R.Shank.Inferior			R.Heel			R.Midfoot.Superior			R.Midfoot.Lateral			R.Toe			L.Heel			L.Midfoot.Lateral			L.Midfoot.Superior			L.Toe			L.Elbow			L.Wrist			R.Elbow			R.Wrist			
		X1	Y1	Z1	X2	Y2	Z2	X3	Y3	Z3	X4	Y4	Z4	X5	Y5	Z5	X6	Y6	Z6	X7	Y7	Z7	X8	Y8	Z8	X9	Y9	Z9	X10	Y10	Z10	X11	Y11	Z11	X12	Y12	Z12	X13	Y13	Z13	X14	Y14	Z14	X15	Y15	Z15	X16	Y16	Z16	X17	Y17	Z17	X18	Y18	Z18	X19	Y19	Z19	X20	Y20	Z20	X21	Y21	Z21	X22	Y22	Z22	X23	Y23	Z23	X24	Y24	Z24	X25	Y25	Z25	X26	Y26	Z26	X27	Y27	Z27	X28	Y28	Z28	X29	Y29	Z29	X30	Y30	Z30	X31	Y31	Z31	X32	Y32	Z32	X33	Y33	Z33	

124	53.066000000000	869.881191228624	992.563434904786	461.896332451574	1084.332912134019	1404.925501230075	275.097341903520	1169.195094880234	1338.897962892654	448.145008996126	1072.591326221107	1429.096291070391	607.659836055176	1075.715600884218	1471.552244039661	424.101213971471	1087.234069802523	921.787793585560	592.308214804626	1090.569127681298	940.845907716915	317.049678273336	1162.338235273731	754.324163154507	569.424019130408	1116.163296255887	632.528308791543	642.473544514595	1209.371517106119	596.696654172233	567.680006603139	1241.940873922000	514.063618696412	586.123639589932	1070.698383864699	714.570036205122	342.354480086188	943.773306112573	632.293627556215	278.145273298342	992.245433106392	532.536855498981	342.189300632176	970.235006867994	467.618642680117	351.300093169099	931.700246719274	405.671774611465	342.649340396874	820.906603713185	310.550836630842	292.489104692064	849.622360920164	191.694926286287	364.694221079892	1227.199477621358	423.754684943359	597.955675980287	1170.880313191948	310.745314778103	659.480878676505	1242.756986437882	224.759763655251	612.000954241029	1149.478898519727	43.273115771817	584.515161434272	1313.152136603258	111.608165644946	625.813758876249	1232.182954174776	40.655612063961	658.740520485367	1436.130958094185	71.160516796573	653.593576248405	699.541739927015	47.818350066417	405.236868928716	776.635704710064	38.748242625464	329.214089323633	861.355000646230	96.938781842104	357.187211045620	987.904071674114	38.924635549821	336.050348064820	1124.213166081749	1064.075471735444	153.787523597698	1359.331002656183	1074.179113667988	249.121829458246	879.671078284488	1168.158011625889	747.522388063535	835.708083399080	911.043837337746	789.647877908039	
125	53.078000000000	871.324667274892	990.969196462634	465.595053360543	1083.228180792326	1403.841070424976	277.198658841943	1169.412250224550	1338.342364653075	449.867879757815	1073.152065319036	1428.175255465933	609.891518717456	1075.181657730449	1470.561772404099	426.182437706238	1089.601652366440	920.470350165098	594.763613833688	1091.494868735145	939.647648839901	319.812414236594	1164.688347734944	752.027098909465	572.445426649212	1115.846721706000	629.786070995671	643.104818751991	1209.917435381845	594.521895741604	569.212073228107	1240.917398219426	510.908879930314	586.037596958570	1071.227202704795	713.238062768333	344.184398570477	943.554053952134	631.688248263994	280.288082402868	991.841746011852	531.304729014382	343.768776986151	969.353166793581	465.771533727397	352.716597048890	929.486950958989	404.448449220518	343.834616738583	816.759911545763	311.594788516914	293.473867960181	843.418249239932	191.785246501221	364.864507803807	1225.390531873503	420.215247405374	597.395485252528	1167.643229010564	307.713027988447	658.368046122701	1237.763250109595	220.977145883751	610.168475634681	1140.618700052532	42.446833937781	582.694347040563	1305.872055441788	107.247207879189	622.790743573937	1223.508619349402	38.625911398692	656.825652835927	1428.319706474907	64.133123247083	650.319275760922	691.286235119495	49.625310513241	404.920253965423	768.352624609063	39.434090992983	329.039388024816	853.566605004547	97.176749126260	356.824305902163	979.498518098707	38.758250618153	336.018093082561	1123.418106623213	1061.898430197110	158.037886297429	1358.789166784406	1080.268481404522	250.915287539138	882.261852451509	1165.753427057413	749.922707572956	838.396297908589	908.148175170261	790.075299294347	
126	53.090000000000	872.690262356618	989.964759948682	469.301284783435	1082.418520124858	1403.248534434768	279.432561743564	1169.842322374457	1338.129790186477	451.703712432760	1074.030675309021	1427.615732236800	612.278196167038	1075.010711926816	1470.040526409664	428.449705435735	1091.898829885555	919.682739115220	597.236260421481	1092.296163914907	938.916223648946	322.630784418714	1167.151787345855	750.455282735228	575.356051249084	1115.907636218695	627.944960407584	643.947584292021	1210.644490420882	593.097639355012	570.777933150692	1240.151421708753	508.459842176124	586.206077033833	1072.005718253976	712.380325395097	345.965641427330	943.738558229970	631.298127564674	282.525399086330	992.237456478756	530.319719209023	345.247595730654	969.411891019386	464.000289460693	353.921880060411	927.965225730841	403.374205269312	344.923817825650	813.105592873062	313.074535384740	294.520906868531	837.627775662068	192.218928737242	364.920284713955	1223.692090880203	417.404602012452	597.141701656417	1164.530124520977	305.557858206108	657.891502569863	1232.538980344004	217.886061735414	608.824446292946	1131.256328822386	42.096072744760	581.536295741217	1298.035482194588	103.671491805211	620.412832286461	1214.325664281990	37.257295473298	655.611720641272	1419.989651156727	58.061723410098	647.832562012052	683.165566899098	52.139922917737	404.568079406093	760.141285711428	40.432655584917	328.852434057780	846.073947784206	97.513157017811	356.318866623273	971.110145693955	38.584949194112	335.987614120008	1121.934102077639	1060.083792386132	162.289504487741	1357.587622266956	1085.345386404106	252.292851256325	885.846943556798	1163.017606846662	752.559803715944	842.496340931861	904.873937278615	790.775099044087	
127	53.102000000000	873.956381723080	989.601363824012	472.971901569358	1081.946093012450	1403.196767260723	281.774099773711	1170.479968940379	1338.287978206388	453.631434965304	1075.240182902458	1427.479748826843	614.781104666301	1075.222258330652	1470.027216472533	430.869838379971	1094.059770397548	919.483886236453	599.740551918849	1092.940610387026	938.682283024825	325.472418979204	1169.570628573932	749.638361209620	578.076898383223	1116.320862388923	627.049839985240	645.075355646571	1211.393408567385	592.369479242989	572.362368945360	1239.481134616750	506.719656659699	586.713069642283	1073.029576091057	712.043428940598	347.732931862360	944.397196707756	631.102224554898	284.840087134110	993.550290647619	529.591344381411	346.610946974813	970.544924409751	462.306356017424	354.858254736871	927.245141620548	402.451419057643	345.887132600397	810.054573482767	315.020568535781	295.631304335862	832.347556530668	193.039693364188	364.864345567676	1222.011279602549	415.346941811360	597.248888561360	1161.538766383709	304.246198570301	658.071799140642	1227.194063890388	215.538534070045	607.994580103456	1121.798942954446	42.096318103178	580.972035658499	1289.918679969550	100.972546318548	618.730882784747	1205.023347916004	36.471319927819	655.024570084789	1411.450165988456	53.231274616314	646.161520209573	675.250704436737	55.482325696882	404.206725668572	752.036733293749	41.833382578997	328.672170317101	838.941682762882	97.961961432611	355.682468289028	962.743579335853	38.412870869494	335.966485313002	1119.740330821827	1058.711039919407	166.518332362133	1355.774985222351	1089.324892029187	253.334805517108	890.376205696877	1160.106957745796	755.406986802327	848.071258746926	901.370647493675	791.745121560209	
128	53.114000000000	875.116002565606	989.881368056627	476.589296672540	1081.819423920050	1403.694781512964	284.197575044237	1171.305278058103	1338.819865775909	455.626049909929	1076.772866186854	1427.798406154857	617.358032890624	1075.800625381851	1470.521487562551	433.401519804195	1096.040583442671	919.885606922532	602.296607761367	1093.411510759444	938.943292467609	328.310792064133	1171.786368303830	749.517517327949	580.568051005523	1116.969395491859	627.029093786976	646.514722781715	1211.973927732745	592.201320346118	573.955766437259	1238.692661691985	505.600161229787	587.582577213793	1074.316396780102	712.238679405818	349.520393061485	945.621035759884	631.053457991807	287.209849027829	995.904680075537	529.106945121536	347.846882002688	972.885005590922	460.680698951471	355.479422197606	927.453607958087	401.666189789863	346.700965090935	807.745680542736	317.442798635774	296.799472736105	827.689790340398	194.282388051328	364.707222886547	1220.192269170796	413.974033526334	597.712456811226	1158.565766132754	303.654399476685	658.831996802446	1221.750976633674	213.894247604794	607.636964239203	1112.505900039912	42.323827420118	580.885356937143	1281.703882990396	99.125637875564	617.710917501081	1195.849676332723	36.148228378385	654.938304210932	1402.900732468089	49.711815434594	645.238439793488	667.640535786440	59.777410763529	403.864786888768	744.094359730629	43.747547300094	328.518526556402	832.239744412167	98.546983260206	354.939464111923	954.407753949955	38.245896358880	335.961894815326	1116.829587337623	1057.839697902868	170.696322897010	1353.390212131478	1092.166764303375	254.135319205321	895.772662260991	1157.170972987567	758.440073979880	855.193027899181	897.784866497049	792.961237603494	
